<svg width="104" height="116" viewBox="0 0 104 116" fill="none" xmlns="http://www.w3.org/2000/svg">
<path d="M12.3664 103.892C12.3428 102.499 12.331 100.81 12.331 98.8252C12.3546 96.8409 12.3901 94.8212 12.4373 92.766C12.5318 88.2541 13.0751 84.569 14.0673 81.7106C15.083 78.8523 16.465 76.49 18.213 74.6239C19.9611 72.7577 22.0045 71.045 24.3431 69.4859L30.4732 65.6236C33.5914 63.5448 36.2489 61.3007 38.4458 58.8912C40.6427 56.4817 42.3435 53.6824 43.5483 50.4933C44.7531 47.2807 45.4381 43.4656 45.6035 39.0482C45.6743 37.6545 45.7098 36.0835 45.7098 34.3355C45.7334 32.5638 45.7334 30.7448 45.7098 28.8787C45.6861 26.9888 45.6389 25.2053 45.568 23.5281C45.2609 15.9216 43.4066 10.5239 40.0049 7.33482C36.6269 4.12215 31.3118 2.51581 24.0596 2.51581C16.902 2.51581 11.6932 4.14577 8.43328 7.40569C5.19698 10.642 3.43709 16.0398 3.15362 23.599C3.08275 25.1581 3.04732 26.9652 3.04732 29.0204C3.07094 31.0519 3.10637 33.178 3.15362 35.3985C3.22449 37.5954 3.29536 39.6978 3.36622 41.7057H0.318905C0.248037 39.7687 0.17717 37.6899 0.106302 35.4694C0.0590567 33.2488 0.0236227 31.0874 0 28.985C0 26.8825 0.0236227 25.04 0.070868 23.4573C0.401585 14.9767 2.45675 8.95297 6.23637 5.38595C10.016 1.79532 15.9571 0 24.0596 0C32.4929 0 38.6112 1.81894 42.4144 5.45683C46.2177 9.09471 48.2846 15.083 48.6153 23.4218C48.7098 25.0754 48.7571 26.8589 48.7571 28.7723C48.7807 30.6858 48.7925 32.552 48.7925 34.3709C48.7925 36.1899 48.7571 37.7844 48.6862 39.1545C48.4972 43.7137 47.7649 47.7413 46.4893 51.2375C45.2373 54.7336 43.4066 57.8636 40.9971 60.6274C38.6112 63.3677 35.6111 65.9189 31.9968 68.2812L25.8668 72.108C23.6462 73.5963 21.7682 75.1908 20.2328 76.8916C18.7209 78.5688 17.5634 80.6594 16.7602 83.1634C15.9807 85.6438 15.5555 88.8683 15.4846 92.8369C15.4846 93.7582 15.4728 94.7385 15.4492 95.7779C15.4492 96.8173 15.4492 97.8095 15.4492 98.7544C15.4728 99.6993 15.4728 100.514 15.4492 101.199H47.6586V103.892H12.3664ZM0.318905 114.593C0.248037 111.357 0.17717 108.652 0.106302 106.479C0.0590567 104.282 0.035434 102.132 0.035434 100.03C0.0590567 97.9039 0.106302 95.3645 0.177169 92.4117C0.318905 86.3643 1.16932 81.2618 2.72841 77.1042C4.28751 72.9466 6.40173 69.4269 9.07109 66.5449C11.7641 63.6393 14.835 61.0763 18.2839 58.8558L24.3785 55.0289C26.5991 53.4698 28.3353 51.9461 29.5873 50.4579C30.863 48.9697 31.7842 47.2925 32.3512 45.4263C32.9181 43.5601 33.2488 41.3041 33.3433 38.6584C33.4142 37.5718 33.4496 36.3906 33.4496 35.115C33.4732 33.8158 33.4732 32.5047 33.4496 31.1819C33.4496 29.8354 33.4378 28.5597 33.4142 27.355C33.4142 26.1266 33.3906 25.04 33.3433 24.0951C33.1543 19.7013 32.2921 16.6658 30.7566 14.9886C29.2448 13.2877 27.0125 12.4373 24.0596 12.4373C21.1777 12.4373 19.0516 13.3232 17.6815 15.0949C16.3114 16.8429 15.5555 19.7958 15.4138 23.9533C15.3429 25.5124 15.3075 27.2605 15.3075 29.1976C15.3311 31.1346 15.3665 33.1662 15.4138 35.2922C15.4846 37.4182 15.5555 39.5561 15.6264 41.7057H12.5436C12.4491 38.5167 12.3664 35.3513 12.2956 32.2094C12.2247 29.044 12.2365 26.2684 12.331 23.8825C12.52 18.8745 13.5239 15.3075 15.3429 13.1814C17.1855 11.0318 20.091 9.95694 24.0596 9.95694C28.2645 9.95694 31.3118 11.0436 33.2016 13.2169C35.115 15.3901 36.178 18.9099 36.3906 23.7762C36.4379 25.0045 36.4733 26.2802 36.4969 27.603C36.5206 28.9023 36.5324 30.2015 36.5324 31.5008C36.5324 32.8 36.5206 34.0756 36.4969 35.3276C36.4969 36.556 36.4733 37.7017 36.4261 38.7647C36.308 41.812 35.8946 44.4223 35.1859 46.5956C34.5008 48.7689 33.4142 50.7296 31.926 52.4776C30.4377 54.2257 28.4298 55.962 25.9022 57.6864L19.8076 61.5133C16.5476 63.6157 13.6893 66.0016 11.2326 68.671C8.79942 71.3167 6.88599 74.553 5.49226 78.3799C4.09852 82.2067 3.3426 86.9076 3.22449 92.4826C3.17724 95.1283 3.14181 97.3724 3.11819 99.215C3.11819 101.034 3.13 102.9 3.15362 104.814C3.20086 106.703 3.24811 109.066 3.29536 111.9H47.6586V114.593H0.318905ZM6.27181 109.243C6.20094 106.148 6.1655 103.443 6.1655 101.128C6.18913 98.8134 6.23637 95.9551 6.30724 92.5534C6.37811 87.4509 7.01592 83.1634 8.22067 79.6909C9.44905 76.2184 11.1617 73.2655 13.3586 70.8324C15.5791 68.3757 18.2249 66.1433 21.2958 64.1354L27.4259 60.3085C30.1897 58.4424 32.4339 56.5171 34.1583 54.5328C35.8828 52.5485 37.1702 50.2926 38.0206 47.7649C38.871 45.2373 39.3553 42.2727 39.4734 38.871C39.5443 37.7135 39.5797 36.497 39.5797 35.2213C39.6033 33.9457 39.6033 32.6465 39.5797 31.3236C39.5797 29.9771 39.5679 28.6542 39.5443 27.355C39.5443 26.0557 39.5088 24.8274 39.438 23.6699C39.1781 17.6461 37.7962 13.4413 35.2922 11.0554C32.7882 8.6695 29.044 7.47656 24.0596 7.47656C19.028 7.47656 15.3547 8.74037 13.0397 11.268C10.7483 13.772 9.49629 17.9532 9.28369 23.8116C9.21282 25.3234 9.17739 27.0833 9.17739 29.0913C9.20101 31.0992 9.23644 33.2016 9.28369 35.3985C9.35456 37.5718 9.42542 39.6742 9.49629 41.7057H6.44897C6.37811 39.6269 6.30724 37.5009 6.23637 35.3276C6.18913 33.1544 6.15369 31.0637 6.13007 29.0558C6.13007 27.0243 6.15369 25.2408 6.20094 23.7053C6.48441 17.0437 7.99626 12.2601 10.7365 9.35456C13.5003 6.44898 17.9414 4.99618 24.0596 4.99618C30.296 4.99618 34.8552 6.42535 37.7371 9.28369C40.6191 12.1184 42.2136 16.902 42.5207 23.6344C42.568 24.7683 42.6034 25.9967 42.627 27.3196C42.6506 28.6424 42.6625 29.9889 42.6625 31.359C42.6625 32.7291 42.6506 34.0638 42.627 35.3631C42.627 36.6623 42.6034 37.8553 42.5561 38.9419C42.4144 42.9105 41.812 46.324 40.749 49.1823C39.7096 52.0406 38.2096 54.5683 36.2489 56.7652C34.3119 58.9384 31.8787 61.0054 28.9495 62.9661L22.8194 66.8284C20.3155 68.482 18.0595 70.36 16.0516 72.4624C14.0673 74.5648 12.4846 77.2223 11.3034 80.435C10.1223 83.6241 9.47267 87.699 9.35456 92.6597C9.28369 95.4472 9.24826 97.9512 9.24826 100.172C9.24826 102.392 9.26007 104.518 9.28369 106.55H47.6586V109.243H6.27181Z" fill="#1670F8"/>
<path d="M78.6205 115.834C70.5179 115.834 64.5296 114.05 60.6554 110.483C56.805 106.892 54.6553 100.821 54.2065 92.27C54.112 90.0022 54.0411 87.4509 53.9939 84.6162C53.9702 81.7579 54.0175 78.9704 54.1356 76.2538H57.1829C57.0884 78.7814 57.053 81.439 57.0766 84.2264C57.1002 87.0139 57.1711 89.636 57.2892 92.0928C57.6908 99.7938 59.557 105.262 62.8878 108.499C66.2422 111.735 71.4864 113.353 78.6205 113.353C86.1797 113.353 91.6365 111.652 94.9909 108.251C98.3453 104.825 100.188 99.2741 100.519 91.5967C100.684 88.2895 100.79 85.3013 100.838 82.6319C100.908 79.9626 100.932 77.4349 100.908 75.0491C100.908 72.6396 100.873 70.2064 100.802 67.7497C100.519 59.9778 99.0068 54.4856 96.2665 51.2729C93.5263 48.0602 89.2624 46.4066 83.4749 46.3121C79.5299 46.2649 76.3645 46.7964 73.9786 47.9067C71.5927 49.0169 69.3368 50.8713 67.2107 53.4698L66.2894 53.5052L67.6359 36.2489L67.5296 11.9767H102.042V14.6342H70.6124L70.7187 37.4537L68.2737 49.6784H69.0179C70.8368 47.3161 73.1754 45.7334 76.0338 44.9302C78.9157 44.1034 81.7977 43.7255 84.6797 43.7963C91.2231 43.9853 95.9594 45.9342 98.8887 49.6429C101.841 53.3281 103.495 59.3636 103.849 67.7497C103.92 70.0174 103.968 72.3561 103.991 74.7656C104.015 77.1515 103.991 79.7145 103.92 82.4548C103.849 85.1714 103.743 88.1832 103.601 91.4904C103.153 100.16 101.003 106.384 97.1524 110.164C93.3255 113.944 87.1482 115.834 78.6205 115.834ZM78.5496 110.837C72.4786 110.837 68.0139 109.396 65.1556 106.514C62.2972 103.632 60.6909 98.7662 60.3365 91.9156C60.2421 89.3171 60.1712 86.7304 60.1239 84.1556C60.1003 81.5807 60.1476 78.9468 60.2657 76.2538H63.313C63.2185 78.9704 63.1831 81.628 63.2067 84.2264C63.2303 86.8013 63.3012 89.3171 63.4193 91.7739C63.7028 97.6323 65.0138 101.861 67.3525 104.459C69.6911 107.058 73.4471 108.369 78.6205 108.392C84.1481 108.392 88.1167 107.093 90.5262 104.495C92.9358 101.896 94.235 97.5614 94.424 91.4904C94.5421 88.5848 94.6248 85.7974 94.672 83.128C94.7193 80.435 94.7429 77.8129 94.7429 75.2617C94.7429 72.7104 94.7193 70.1828 94.672 67.6788C94.5067 62.0094 93.4436 57.9108 91.483 55.3832C89.5459 52.832 86.3569 51.4855 81.9158 51.3438C78.3252 51.2256 75.3369 51.8635 72.951 53.2572C70.5888 54.6273 68.4982 56.8124 66.6792 59.8125H61.1161L61.3996 32.7409V6.62615H102.042V9.28369H64.376L64.4823 34.2646L63.6319 57.3321H66.7855C68.7934 54.2848 70.9313 52.0761 73.1991 50.706C75.4905 49.3358 78.585 48.7098 82.4827 48.828C87.6797 48.9461 91.4475 50.4697 93.7862 53.3989C96.1484 56.3045 97.4713 61.0881 97.7548 67.7497C97.8493 70.0647 97.8965 72.4388 97.8965 74.8719C97.9201 77.305 97.8965 79.9035 97.8256 82.6674C97.7784 85.4312 97.6603 88.4313 97.4713 91.6676C97.0461 98.967 95.2508 103.999 92.0853 106.762C88.9435 109.503 84.4316 110.861 78.5496 110.837ZM78.6205 105.841C74.6991 105.841 71.7699 104.766 69.8328 102.617C67.9194 100.443 66.7973 96.7701 66.4666 91.5967C66.3721 89.6124 66.3131 87.2738 66.2894 84.5808C66.2894 81.8642 66.3485 79.0885 66.4666 76.2538H69.5494C69.4312 78.9232 69.3722 81.5689 69.3722 84.191C69.3722 86.8131 69.4312 89.2463 69.5494 91.4904C69.8328 95.9551 70.7187 99.0615 72.2069 100.81C73.7188 102.534 75.8566 103.396 78.6205 103.396C81.8567 103.396 84.2544 102.475 85.8135 100.632C87.3963 98.7898 88.2349 95.7425 88.3293 91.4904C88.4238 88.136 88.4829 84.9587 88.5065 81.9587C88.5538 78.935 88.5774 76.2066 88.5774 73.7734C88.601 71.3403 88.601 69.3324 88.5774 67.7497C88.5774 63.4976 87.9514 60.5211 86.6994 58.8203C85.4474 57.1195 83.4631 56.2573 80.7465 56.2336C78.6677 56.21 76.9314 56.588 75.5377 57.3675C74.144 58.1235 72.9746 59.1747 72.0297 60.5212C71.1085 61.844 70.2817 63.3322 69.5494 64.9858H55.3049V1.24019H102.042V3.93317H58.3522V62.3991H67.9903C68.8407 60.8401 69.762 59.3873 70.7541 58.0408C71.7699 56.6943 73.1046 55.6195 74.7582 54.8163C76.4117 54.0131 78.6086 53.647 81.3489 53.7178C85.034 53.7887 87.6679 54.899 89.2506 57.0486C90.8333 59.1983 91.6247 62.7535 91.6247 67.7142C91.6483 69.5332 91.6601 71.482 91.6601 73.5608C91.6601 75.6396 91.6483 77.742 91.6247 79.8681C91.6011 81.9705 91.5656 84.0138 91.5184 85.9981C91.4948 87.9824 91.4593 89.8132 91.4121 91.4904C91.294 96.5693 90.231 100.231 88.223 102.475C86.2387 104.719 83.0379 105.841 78.6205 105.841Z" fill="#1670F8"/>
</svg>
